<svg xmlns="http://www.w3.org/2000/svg" xmlns:xlink="http://www.w3.org/1999/xlink" width="500" zoomAndPan="magnify" viewBox="0 0 375 374.999991" height="500" preserveAspectRatio="xMidYMid meet" version="1.0"><defs><filter x="0%" y="0%" width="100%" height="100%" id="a0e8144c22"><feColorMatrix values="0 0 0 0 1 0 0 0 0 1 0 0 0 0 1 0 0 0 1 0" color-interpolation-filters="sRGB"/></filter><g/><clipPath id="e481099729"><path d="M 17 10 L 358.210938 10 L 358.210938 366 L 17 366 Z M 17 10 " clip-rule="nonzero"/></clipPath><mask id="0eb4fd1aac"><g filter="url(#a0e8144c22)"><rect x="-37.5" width="450" fill="#000000" y="-37.499999" height="449.999989" fill-opacity="0.6471"/></g></mask><clipPath id="c8e5dd027d"><path d="M 0.71875 0.574219 L 160.980469 0.574219 L 160.980469 185 L 0.71875 185 Z M 0.71875 0.574219 " clip-rule="nonzero"/></clipPath><clipPath id="3a0f52d576"><rect x="0" width="162" y="0" height="189"/></clipPath><mask id="cbe8e32cfe"><g filter="url(#a0e8144c22)"><rect x="-37.5" width="450" fill="#000000" y="-37.499999" height="449.999989" fill-opacity="0.6471"/></g></mask><clipPath id="44d8c86af0"><rect x="0" width="281" y="0" height="171"/></clipPath></defs><rect x="-37.5" width="450" fill="#ffffff" y="-37.499999" height="449.999989" fill-opacity="1"/><rect x="-37.5" width="450" fill="#ffffff" y="-37.499999" height="449.999989" fill-opacity="1"/><rect x="-37.5" width="450" fill="#ffffff" y="-37.499999" height="449.999989" fill-opacity="1"/><g clip-path="url(#e481099729)"><path fill="#ffcc3b" d="M 350.546875 188.101562 C 350.546875 169.730469 362.085938 149.710938 356.726562 133.148438 C 351.121094 115.929688 329.855469 106.621094 319.472656 92.285156 C 308.921875 77.871094 306.613281 54.800781 292.105469 44.257812 C 277.761719 33.875 255.175781 38.65625 237.949219 33.050781 C 221.382812 27.695312 205.96875 10.3125 187.585938 10.3125 C 169.207031 10.3125 153.792969 27.695312 137.222656 33.050781 C 119.996094 38.65625 97.410156 33.792969 83.070312 44.257812 C 68.5625 54.800781 66.171875 77.871094 55.703125 92.285156 C 45.316406 106.621094 23.96875 115.929688 18.445312 133.148438 C 13.085938 149.710938 24.628906 169.730469 24.628906 188.101562 C 24.628906 206.472656 13.085938 226.492188 18.445312 243.050781 C 23.96875 260.1875 45.234375 269.496094 55.703125 283.832031 C 66.253906 298.25 68.5625 321.398438 83.070312 331.863281 C 97.410156 342.242188 119.996094 337.464844 137.222656 343.066406 C 153.792969 348.421875 169.207031 365.804688 187.585938 365.804688 C 205.96875 365.804688 221.382812 348.421875 237.949219 343.066406 C 255.175781 337.464844 277.761719 342.324219 292.105469 331.863281 C 306.53125 321.316406 308.921875 298.25 319.472656 283.832031 C 329.855469 269.496094 351.207031 260.1875 356.726562 242.96875 C 362.167969 226.410156 350.546875 206.472656 350.546875 188.101562 Z M 350.546875 188.101562 " fill-opacity="1" fill-rule="nonzero"/></g><path fill="#7c631d" d="M 187.585938 348.667969 C 177.285156 348.667969 168.132812 342.902344 159.230469 337.300781 C 153.378906 333.59375 147.773438 330.050781 142.003906 328.238281 C 135.90625 326.261719 128.816406 325.765625 121.972656 325.273438 C 111.671875 324.53125 101.039062 323.789062 93.125 318.023438 C 85.128906 312.171875 81.089844 302.285156 77.214844 292.648438 C 74.660156 286.304688 72.023438 279.796875 68.3125 274.6875 C 64.6875 269.664062 59.328125 265.214844 54.136719 260.847656 C 46.140625 254.171875 37.816406 247.253906 34.765625 237.695312 C 31.796875 228.550781 34.355469 218.335938 36.828125 208.449219 C 38.476562 201.695312 40.289062 194.691406 40.289062 188.101562 C 40.289062 181.511719 38.558594 174.507812 36.828125 167.75 C 34.355469 157.867188 31.796875 147.566406 34.765625 138.503906 C 37.898438 128.949219 46.140625 122.027344 54.136719 115.355469 C 59.328125 111.070312 64.6875 106.539062 68.3125 101.515625 C 72.023438 96.40625 74.660156 89.898438 77.214844 83.554688 C 81.089844 73.914062 85.128906 64.027344 93.125 58.179688 C 101.039062 52.414062 111.671875 51.671875 121.972656 50.929688 C 128.816406 50.433594 135.90625 49.941406 142.003906 47.964844 C 147.773438 46.070312 153.296875 42.609375 159.230469 38.902344 C 168.132812 33.300781 177.285156 27.53125 187.585938 27.53125 C 197.890625 27.53125 207.039062 33.300781 215.941406 38.902344 C 221.792969 42.609375 227.398438 46.152344 233.167969 47.964844 C 239.269531 49.941406 246.359375 50.433594 253.199219 50.929688 C 263.503906 51.671875 274.136719 52.414062 282.046875 58.179688 C 290.042969 64.027344 294.082031 73.914062 297.957031 83.554688 C 300.511719 89.898438 303.148438 96.40625 306.859375 101.515625 C 310.484375 106.539062 315.84375 110.988281 321.035156 115.355469 C 329.03125 122.027344 337.359375 128.949219 340.40625 138.503906 C 343.375 147.648438 340.820312 157.867188 338.347656 167.75 C 336.699219 174.507812 334.882812 181.511719 334.882812 188.101562 C 334.882812 194.691406 336.617188 201.695312 338.347656 208.449219 C 340.820312 218.335938 343.375 228.632812 340.40625 237.695312 C 337.273438 247.253906 329.03125 254.171875 321.035156 260.847656 C 315.84375 265.132812 310.484375 269.664062 306.859375 274.6875 C 303.148438 279.796875 300.511719 286.304688 297.957031 292.648438 C 294.082031 302.285156 290.042969 312.171875 282.046875 318.023438 C 274.136719 323.789062 263.503906 324.53125 253.199219 325.273438 C 246.359375 325.765625 239.269531 326.261719 233.167969 328.238281 C 227.398438 330.132812 221.875 333.59375 215.941406 337.300781 C 207.039062 342.820312 197.890625 348.667969 187.585938 348.667969 Z M 187.585938 30.003906 C 178.023438 30.003906 169.121094 35.605469 160.550781 40.960938 C 154.78125 44.585938 148.847656 48.375 142.746094 50.269531 C 136.316406 52.332031 129.144531 52.824219 122.140625 53.320312 C 111.753906 54.058594 101.945312 54.71875 94.527344 60.074219 C 87.109375 65.511719 83.234375 75.070312 79.441406 84.378906 C 76.804688 90.804688 74.167969 97.558594 70.210938 102.914062 C 66.335938 108.1875 60.894531 112.71875 55.621094 117.167969 C 47.871094 123.59375 39.875 130.265625 36.992188 139.164062 C 34.273438 147.566406 36.578125 157.042969 39.136719 167.09375 C 40.867188 174.011719 42.597656 181.179688 42.597656 188.019531 C 42.597656 194.855469 40.785156 202.023438 39.136719 208.945312 C 36.660156 218.996094 34.273438 228.386719 36.992188 236.871094 C 39.875 245.769531 47.871094 252.445312 55.621094 258.871094 C 60.894531 263.320312 66.417969 267.851562 70.210938 273.121094 C 74.085938 278.476562 76.804688 285.152344 79.441406 291.660156 C 83.152344 300.96875 87.023438 310.523438 94.527344 315.960938 C 101.863281 321.316406 111.671875 321.976562 122.140625 322.71875 C 129.144531 323.210938 136.398438 323.707031 142.746094 325.765625 C 148.847656 327.742188 154.78125 331.449219 160.550781 335.074219 C 169.121094 340.511719 178.023438 346.03125 187.585938 346.03125 C 197.148438 346.03125 206.050781 340.429688 214.621094 335.074219 C 220.394531 331.449219 226.328125 327.660156 232.425781 325.765625 C 238.855469 323.707031 246.027344 323.210938 253.035156 322.71875 C 263.421875 321.976562 273.230469 321.316406 280.648438 315.960938 C 288.066406 310.523438 291.941406 300.96875 295.730469 291.660156 C 298.371094 285.234375 301.007812 278.476562 304.964844 273.121094 C 308.835938 267.851562 314.277344 263.320312 319.554688 258.871094 C 327.300781 252.445312 335.296875 245.769531 338.183594 236.871094 C 340.902344 228.46875 338.59375 218.996094 336.039062 208.945312 C 334.308594 202.023438 332.578125 194.855469 332.578125 188.019531 C 332.578125 181.097656 334.390625 174.011719 336.039062 167.09375 C 338.511719 157.042969 340.902344 147.648438 338.183594 139.164062 C 335.296875 130.265625 327.300781 123.59375 319.554688 117.167969 C 314.277344 112.71875 308.753906 108.1875 304.964844 102.914062 C 301.089844 97.558594 298.371094 90.886719 295.730469 84.378906 C 292.023438 75.070312 288.148438 65.511719 280.648438 60.074219 C 273.3125 54.71875 263.503906 54.058594 253.035156 53.320312 C 246.027344 52.824219 238.773438 52.332031 232.425781 50.269531 C 226.328125 48.292969 220.394531 44.585938 214.621094 40.960938 C 205.96875 35.523438 197.148438 30.003906 187.585938 30.003906 Z M 187.585938 30.003906 " fill-opacity="1" fill-rule="nonzero"/><g mask="url(#0eb4fd1aac)"><g transform="matrix(1, 0, 0, 1, 132, 114)"><g clip-path="url(#3a0f52d576)"><g clip-path="url(#c8e5dd027d)"><path fill="#c2b06a" d="M 76.925781 0.574219 C 65.5625 0.574219 57.714844 6.355469 53.726562 14.171875 C 49.757812 21.992188 48.914062 31.527344 48.914062 40.59375 L 48.914062 60.605469 C 48.914062 61.886719 48.492188 63.902344 47.882812 65.105469 L 47.851562 65.203125 L 47.804688 65.296875 C 47.898438 65.089844 46.101562 67.796875 43.847656 70.984375 C 41.597656 74.191406 38.738281 78.425781 35.9375 83.570312 C 30.46875 93.621094 25.199219 107.207031 24.949219 123.4375 C 24.324219 123.984375 23.777344 124.53125 23.261719 125.03125 C 20.929688 127.359375 19.289062 129.8125 16.695312 131.644531 L 16.210938 132.003906 L 15.835938 132.472656 C 15.898438 132.394531 15.882812 132.519531 15.117188 132.691406 C 14.351562 132.847656 13.050781 132.957031 11.550781 133.097656 C 10.035156 133.238281 8.253906 133.425781 6.363281 134.222656 C 4.484375 135.035156 2.5 136.707031 1.484375 139.039062 C 0.671875 140.882812 0.84375 142.804688 1.234375 144.195312 C 1.609375 145.589844 2.140625 146.714844 2.640625 147.824219 C 3.609375 150.042969 4.453125 152.109375 4.453125 154.671875 C 4.453125 154.953125 4.328125 155.34375 3.828125 156.171875 C 3.3125 157 2.328125 158.03125 1.796875 160.175781 L 1.734375 160.363281 C 1.53125 161.410156 1.25 162.441406 1.15625 163.832031 C 1.0625 165.222656 1.328125 166.976562 2.09375 168.492188 L 2.203125 168.726562 L 2.34375 168.914062 C 3.578125 170.773438 5.859375 172.632812 9.082031 173.777344 C 12.300781 174.902344 16.882812 175.917969 24.761719 177.542969 C 28.511719 178.371094 32.375 179.886719 36.03125 181.34375 C 39.707031 182.796875 43.035156 184.21875 46.601562 184.546875 C 49.476562 184.8125 53.757812 184.96875 57.808594 182.65625 C 60.949219 180.875 63.40625 177.433594 64.390625 172.664062 L 101.25 172.664062 C 101.832031 176.386719 103.222656 179.324219 105.691406 181.296875 C 108.066406 183.515625 111.710938 184.671875 117.242188 184.671875 C 123.402344 184.671875 128.171875 182.015625 131.890625 178.292969 C 133.847656 176.339844 135.644531 175.417969 142.148438 170.773438 C 144.601562 169.210938 147.851562 167.351562 150.714844 165.675781 C 152.136719 164.847656 153.464844 164.066406 154.574219 163.363281 C 155.683594 162.660156 156.449219 162.253906 157.417969 161.285156 L 157.433594 161.269531 L 157.449219 161.269531 C 157.433594 161.269531 158.265625 160.769531 159.265625 159.519531 C 160.265625 158.265625 160.96875 156.265625 160.96875 154.1875 C 160.96875 151.9375 159.84375 149.808594 158.53125 148.621094 C 157.402344 147.589844 156.292969 147.105469 155.371094 146.777344 C 153.292969 145.761719 151.246094 144.886719 149.023438 141.632812 C 149.226562 141.898438 148.632812 139.804688 148.273438 137.445312 C 147.898438 135.035156 147.585938 132.175781 145.414062 129.5 C 145.085938 129.078125 144.695312 128.703125 144.273438 128.390625 C 144.648438 124.734375 144.960938 120.761719 144.960938 116.636719 C 144.960938 103.988281 137.707031 91.480469 129.78125 80.101562 C 121.886719 68.734375 116.132812 62.683594 112.929688 49.425781 L 112.945312 49.425781 C 111.257812 42.5 111.023438 40.453125 110.789062 38.328125 C 110.554688 36.183594 110.304688 33.824219 108.832031 27.679688 C 107.457031 21.191406 105.941406 14.453125 101.203125 9.109375 C 96.4375 3.730469 88.667969 0.574219 76.925781 0.574219 Z M 76.925781 8.578125 C 87.324219 8.578125 92.199219 11 95.21875 14.40625 C 98.234375 17.816406 99.671875 23.070312 101.015625 29.433594 L 101.046875 29.464844 L 101.046875 29.527344 C 102.472656 35.464844 102.597656 36.96875 102.832031 39.1875 C 103.066406 41.40625 103.425781 44.175781 105.144531 51.304688 C 108.738281 66.1875 115.601562 73.722656 123.214844 84.664062 C 130.8125 95.59375 136.957031 107.222656 136.957031 116.636719 C 136.957031 120.371094 136.675781 124.109375 136.332031 127.546875 C 136.082031 127.625 135.832031 127.703125 135.613281 127.78125 C 134.394531 126.890625 132.953125 126.265625 131.390625 125.828125 C 129.3125 125.078125 127.265625 124.515625 124.886719 124.453125 C 123.402344 124.296875 122.011719 124.34375 120.714844 124.515625 C 118.542969 84.882812 100.6875 73.207031 95 61.449219 C 95.015625 61.417969 95.046875 61.402344 95.0625 61.355469 C 96.40625 59.292969 96.625 57.148438 96.859375 54.710938 C 96.890625 54.460938 96.875 54.210938 96.875 53.976562 C 99.40625 50.457031 100.9375 45.800781 100.9375 40.59375 C 100.9375 29.371094 93.90625 20.582031 84.929688 20.582031 C 79.835938 20.582031 76.691406 22.367188 74.910156 26.539062 C 73.097656 22.414062 69.988281 20.582031 64.921875 20.582031 C 62.90625 20.582031 61.011719 21.082031 59.246094 21.894531 C 59.714844 20.425781 60.230469 19.050781 60.855469 17.800781 C 63.8125 12.015625 67.96875 8.578125 76.925781 8.578125 Z M 64.921875 28.585938 C 69.34375 28.585938 72.925781 33.964844 72.925781 40.59375 C 72.925781 40.625 72.925781 40.640625 72.925781 40.65625 C 72.597656 40.640625 72.285156 40.59375 71.941406 40.59375 C 70.800781 40.59375 69.734375 40.765625 68.71875 41.03125 C 68.234375 38.484375 66.765625 36.59375 64.921875 36.59375 C 62.71875 36.59375 60.917969 39.28125 60.917969 42.59375 C 60.917969 43.40625 61.027344 44.175781 61.230469 44.878906 C 60.152344 45.691406 59.324219 46.378906 58.839844 46.863281 C 58.667969 47.019531 58.511719 47.144531 58.355469 47.285156 C 57.464844 45.363281 56.917969 43.09375 56.917969 40.59375 C 56.917969 33.964844 60.496094 28.585938 64.921875 28.585938 Z M 84.929688 28.585938 C 89.355469 28.585938 92.933594 33.964844 92.933594 40.59375 C 92.933594 42.875 92.464844 44.957031 91.730469 46.769531 C 90.558594 46.269531 89.433594 45.894531 88.308594 45.613281 C 88.667969 44.722656 88.933594 43.722656 88.933594 42.59375 C 88.933594 39.28125 87.136719 36.59375 84.929688 36.59375 C 82.726562 36.59375 80.929688 39.28125 80.929688 42.59375 C 80.929688 42.609375 80.929688 42.625 80.929688 42.640625 C 79.710938 42.140625 78.382812 41.671875 76.972656 41.296875 C 76.957031 41.0625 76.925781 40.828125 76.925781 40.59375 C 76.925781 33.964844 80.507812 28.585938 84.929688 28.585938 Z M 71.941406 48.597656 C 73.566406 48.597656 75.925781 49.238281 78.085938 50.113281 C 80.242188 50.992188 82.070312 51.960938 83.601562 52.601562 L 83.914062 52.742188 L 84.242188 52.804688 C 86.277344 53.289062 88.105469 53.804688 88.855469 54.195312 C 88.652344 55.914062 88.449219 56.851562 88.355469 56.992188 C 88.246094 57.164062 87.683594 57.695312 85.632812 58.792969 C 83.101562 59.699219 81.179688 61.167969 79.117188 62.417969 C 76.847656 63.777344 74.550781 64.605469 74.222656 64.605469 C 72.472656 64.605469 70.050781 64.480469 69.078125 64.277344 C 69.453125 64.386719 68.796875 64.058594 67.96875 63.292969 C 67.078125 62.449219 65.96875 61.292969 64.84375 60.089844 L 64.546875 59.792969 L 64.234375 59.574219 C 62.953125 58.667969 61.949219 57.851562 61.464844 57.273438 C 60.964844 56.679688 60.917969 56.507812 60.917969 56.117188 C 60.917969 55.523438 60.808594 55.882812 61.167969 55.476562 C 61.527344 55.054688 62.625 54.195312 64.109375 52.882812 L 64.25 52.773438 L 64.375 52.632812 C 64.15625 52.867188 65.609375 51.445312 67.1875 50.410156 C 68.765625 49.378906 70.722656 48.597656 71.941406 48.597656 Z M 56.621094 63.683594 C 56.730469 63.792969 56.839844 63.917969 56.964844 64.011719 C 56.933594 64.214844 56.917969 64.402344 56.917969 64.605469 L 56.917969 68.375 C 56.886719 68.765625 55.917969 71.53125 54.105469 74.785156 C 52.273438 78.050781 49.773438 82.054688 47.257812 86.492188 C 42.222656 95.34375 36.90625 105.832031 36.90625 116.636719 C 36.90625 119.027344 37.4375 121.277344 38.222656 123.390625 C 38.0625 123.25 37.90625 123.078125 37.734375 122.953125 C 36.46875 121.933594 35.03125 120.996094 33.0625 120.746094 C 33.8125 107.425781 38.238281 96.09375 42.972656 87.402344 C 45.566406 82.632812 48.226562 78.675781 50.398438 75.613281 C 52.523438 72.582031 53.992188 70.953125 55.042969 68.625 C 55.855469 67.015625 56.339844 65.34375 56.621094 63.683594 Z M 88.417969 66.296875 C 95.796875 80.820312 111.101562 89.074219 112.757812 125.953125 C 111.476562 126.125 110.195312 126.46875 109.128906 127.25 C 107.691406 128.296875 106.894531 129.625 106.316406 130.816406 C 105.660156 132.128906 105.222656 133.644531 105.066406 135.160156 C 104.925781 136.691406 104.941406 138.289062 104.941406 140.648438 C 104.941406 144.429688 104.910156 148.605469 104.503906 151.433594 L 104.503906 151.527344 C 104.488281 151.542969 104.488281 151.558594 104.488281 151.589844 C 103.628906 153.3125 97.484375 164.660156 80.929688 164.660156 C 71.300781 164.660156 65.375 160.894531 61.902344 157.390625 C 61.464844 156.75 61.027344 156.15625 60.589844 155.546875 C 62.921875 154.78125 65.515625 153.71875 67.453125 150.949219 L 67.546875 150.839844 L 67.609375 150.714844 C 68.84375 148.667969 69.09375 146.324219 68.796875 144.480469 C 68.484375 142.632812 67.734375 141.195312 67.03125 140.132812 C 66.359375 139.132812 65.890625 138.867188 65.390625 138.476562 C 64.890625 138.101562 64.375 137.773438 63.796875 137.414062 C 62.65625 136.691406 61.308594 135.941406 59.917969 135.144531 C 57.152344 133.550781 54.074219 131.691406 52.976562 130.753906 C 51.648438 129.625 49.445312 127.234375 47.742188 124.5625 C 46.050781 121.871094 44.910156 118.886719 44.910156 116.636719 C 44.910156 108.601562 49.367188 98.953125 54.214844 90.449219 C 56.636719 86.195312 59.105469 82.226562 61.089844 78.691406 C 62.65625 75.894531 63.984375 73.519531 64.578125 70.921875 C 65.109375 71.28125 65.71875 71.625 66.53125 71.90625 L 66.671875 71.953125 L 66.828125 72 C 69.609375 72.738281 72.410156 72.613281 74.222656 72.613281 C 77.992188 72.613281 80.710938 70.796875 83.242188 69.28125 C 85.679688 67.8125 87.964844 66.484375 88.417969 66.296875 Z M 32.109375 128.640625 C 31.46875 128.640625 31.984375 128.59375 32.765625 129.21875 C 33.546875 129.84375 34.609375 130.925781 35.65625 132.175781 C 37.75 134.691406 39.910156 137.929688 41.222656 140.101562 L 41.285156 140.226562 L 41.363281 140.335938 C 44.503906 144.808594 44.910156 146.089844 49.601562 153.578125 L 49.523438 153.40625 C 49.789062 153.890625 50.039062 154.28125 50.304688 154.71875 C 50.320312 154.75 50.335938 154.78125 50.351562 154.828125 C 50.351562 154.828125 50.367188 154.828125 50.367188 154.84375 C 50.492188 155.125 50.664062 155.390625 50.851562 155.640625 C 51.242188 156.375 52.148438 158.03125 54.371094 160.628906 C 54.683594 161.050781 55.089844 161.582031 55.339844 161.957031 C 56.574219 163.863281 57.074219 164.894531 56.886719 167.835938 L 56.871094 167.960938 L 56.871094 168.085938 C 56.871094 173.386719 55.480469 174.777344 53.851562 175.699219 C 52.226562 176.621094 49.539062 176.777344 47.320312 176.574219 C 45.769531 176.433594 42.628906 175.339844 38.972656 173.902344 C 35.328125 172.445312 31.078125 170.742188 26.480469 169.726562 L 26.449219 169.726562 L 26.417969 169.710938 C 18.570312 168.101562 14.082031 167.039062 11.753906 166.226562 C 9.582031 165.441406 9.675781 165.332031 9.175781 164.597656 C 9.175781 164.550781 9.128906 164.503906 9.144531 164.363281 C 9.160156 164.050781 9.332031 163.222656 9.550781 162.128906 C 9.550781 162.128906 9.550781 162.113281 9.550781 162.113281 C 9.488281 162.410156 9.878906 161.597656 10.644531 160.347656 C 11.410156 159.113281 12.457031 157.1875 12.457031 154.671875 C 12.457031 150.308594 10.957031 146.902344 9.957031 144.589844 C 9.441406 143.445312 9.066406 142.554688 8.957031 142.117188 C 9.066406 141.882812 9.113281 141.757812 9.519531 141.585938 C 10.003906 141.382812 11.003906 141.179688 12.300781 141.070312 C 13.597656 140.945312 15.132812 140.882812 16.851562 140.507812 C 18.554688 140.117188 20.648438 139.273438 22.148438 137.367188 C 25.324219 134.816406 27.667969 131.957031 28.902344 130.707031 C 29.839844 129.78125 30.46875 129.203125 30.859375 128.953125 C 31.265625 128.71875 31.390625 128.640625 32.109375 128.640625 Z M 121.636719 132.316406 C 122.292969 132.238281 123.105469 132.253906 124.136719 132.378906 L 124.371094 132.410156 L 124.621094 132.410156 C 124.277344 132.410156 127.671875 132.972656 128.796875 133.394531 L 128.953125 133.441406 L 129.125 133.488281 C 130.078125 133.753906 130.203125 133.941406 130.40625 134.082031 C 130.25 134.410156 130 134.753906 129.765625 135.097656 C 129.296875 135.550781 128.5 136.175781 128.078125 137.632812 C 126.921875 138.929688 124.730469 140.289062 123.511719 140.289062 C 122.761719 140.289062 121.980469 140.148438 121.558594 139.976562 C 121.433594 139.929688 121.464844 139.882812 121.386719 139.851562 L 121.386719 139.398438 C 121.386719 139.398438 121.433594 139.335938 121.558594 138.476562 C 121.652344 137.898438 121.402344 136.816406 121.199219 135.847656 C 121.121094 134.660156 120.433594 133.785156 119.980469 132.722656 C 120.058594 132.691406 120.199219 132.675781 120.292969 132.644531 L 120.949219 132.644531 C 120.949219 132.582031 120.949219 132.535156 120.949219 132.472656 C 121.183594 132.425781 121.355469 132.332031 121.636719 132.316406 Z M 130.625 132.691406 C 130.625 133.191406 130.8125 132.941406 130.890625 133.332031 C 130.859375 133.363281 130.828125 133.425781 130.796875 133.472656 Z M 139.441406 135.160156 C 139.660156 135.707031 140.082031 136.863281 140.363281 138.648438 C 140.691406 140.835938 140.519531 143.070312 142.195312 145.839844 L 142.226562 145.917969 L 142.289062 145.996094 C 145.695312 151.105469 150.214844 153.15625 151.871094 153.984375 L 152.121094 154.109375 L 152.402344 154.203125 C 152.761719 154.3125 152.917969 154.421875 153.011719 154.46875 C 153.011719 154.453125 153.011719 154.53125 153.011719 154.53125 C 153.058594 154.453125 152.714844 154.671875 151.761719 155.625 C 152.011719 155.375 151.261719 155.984375 150.324219 156.59375 C 149.351562 157.1875 148.085938 157.9375 146.664062 158.765625 C 143.851562 160.410156 140.519531 162.316406 137.785156 164.050781 L 137.707031 164.097656 L 137.613281 164.160156 C 131.078125 168.835938 128.96875 169.898438 126.234375 172.632812 C 123.324219 175.542969 121.464844 176.667969 117.242188 176.667969 C 112.523438 176.667969 111.554688 175.949219 111.070312 175.480469 L 110.882812 175.277344 L 110.648438 175.105469 C 110.382812 174.902344 108.941406 172.851562 108.941406 168.367188 C 108.941406 165.113281 111.398438 161.191406 112.429688 152.53125 C 112.960938 148.746094 112.945312 144.414062 112.945312 140.648438 C 112.945312 138.289062 112.960938 136.800781 113.039062 135.957031 C 113.054688 135.753906 113.085938 135.675781 113.101562 135.535156 C 113.226562 135.707031 113.382812 135.847656 113.382812 136.347656 L 113.382812 137.207031 L 113.585938 137.664062 C 113.523438 137.945312 113.382812 138.414062 113.382812 139.398438 L 113.382812 142.101562 L 113.757812 142.898438 C 114.773438 145.152344 116.710938 146.636719 118.511719 147.386719 C 120.308594 148.121094 122.027344 148.292969 123.511719 148.292969 C 128.796875 148.292969 132.78125 145.121094 135.144531 141.648438 L 135.847656 140.632812 L 135.847656 140.398438 C 135.894531 140.320312 135.832031 140.351562 135.910156 140.257812 L 136.175781 139.976562 L 136.378906 139.648438 C 137.597656 137.648438 138.472656 136.222656 138.144531 136.582031 Z M 49.460938 138.148438 C 51.460938 139.570312 53.789062 140.851562 55.949219 142.085938 C 57.339844 142.882812 58.636719 143.632812 59.558594 144.210938 C 59.964844 144.464844 60.261719 144.667969 60.464844 144.808594 C 60.652344 145.152344 60.855469 145.527344 60.902344 145.792969 C 60.933594 146.058594 60.886719 146.199219 60.777344 146.417969 C 60.667969 146.496094 58.902344 147.699219 57.027344 148.308594 C 56.621094 148.433594 56.324219 148.496094 55.949219 148.589844 C 52.773438 143.507812 51.335938 141.007812 49.460938 138.148438 Z M 49.460938 138.148438 " fill-opacity="1" fill-rule="nonzero"/></g></g></g></g><g fill="#7c631d" fill-opacity="1"><g transform="translate(162.91186, 248.213773)"><g><path d="M 9.421875 -34.890625 C 12.085938 -34.890625 14.050781 -34.097656 15.3125 -32.515625 C 16.582031 -30.941406 17.21875 -28.835938 17.21875 -26.203125 L 17.21875 -23.09375 L 13.578125 -23.09375 L 13.578125 -26.40625 C 13.578125 -27.988281 13.253906 -29.210938 12.609375 -30.078125 C 11.972656 -30.953125 10.945312 -31.390625 9.53125 -31.390625 C 8.144531 -31.390625 7.125 -30.953125 6.46875 -30.078125 C 5.8125 -29.210938 5.484375 -27.988281 5.484375 -26.40625 L 5.484375 -8.140625 C 5.484375 -6.566406 5.8125 -5.34375 6.46875 -4.46875 C 7.125 -3.59375 8.144531 -3.15625 9.53125 -3.15625 C 10.945312 -3.15625 11.972656 -3.59375 12.609375 -4.46875 C 13.253906 -5.34375 13.578125 -6.566406 13.578125 -8.140625 L 13.578125 -12.640625 L 17.21875 -12.640625 L 17.21875 -8.34375 C 17.21875 -5.707031 16.582031 -3.597656 15.3125 -2.015625 C 14.050781 -0.441406 12.085938 0.34375 9.421875 0.34375 C 6.796875 0.34375 4.847656 -0.441406 3.578125 -2.015625 C 2.304688 -3.597656 1.671875 -5.707031 1.671875 -8.34375 L 1.671875 -26.203125 C 1.671875 -27.523438 1.828125 -28.71875 2.140625 -29.78125 C 2.453125 -30.851562 2.929688 -31.765625 3.578125 -32.515625 C 4.222656 -33.273438 5.03125 -33.859375 6 -34.265625 C 6.96875 -34.679688 8.109375 -34.890625 9.421875 -34.890625 Z M 9.421875 -34.890625 "/></g></g></g><g fill="#7c631d" fill-opacity="1"><g transform="translate(194.011464, 248.213773)"><g><path d="M 9.671875 -34.546875 C 12.398438 -34.546875 14.363281 -33.867188 15.5625 -32.515625 C 16.769531 -31.171875 17.375 -29.21875 17.375 -26.65625 L 17.375 -23.84375 C 17.375 -21.9375 17.023438 -20.390625 16.328125 -19.203125 C 15.640625 -18.015625 14.554688 -17.191406 13.078125 -16.734375 C 14.660156 -16.273438 15.78125 -15.425781 16.4375 -14.1875 C 17.09375 -12.957031 17.421875 -11.40625 17.421875 -9.53125 L 17.421875 -4.140625 C 17.421875 -3.390625 17.453125 -2.660156 17.515625 -1.953125 C 17.585938 -1.242188 17.785156 -0.59375 18.109375 0 L 14.21875 0 C 13.988281 -0.488281 13.820312 -1.019531 13.71875 -1.59375 C 13.625 -2.175781 13.578125 -3.046875 13.578125 -4.203125 L 13.578125 -9.625 C 13.578125 -11.5625 13.140625 -12.898438 12.265625 -13.640625 C 11.390625 -14.390625 10.148438 -14.765625 8.546875 -14.765625 L 5.828125 -14.765625 L 5.828125 0 L 1.96875 0 L 1.96875 -34.546875 Z M 8.6875 -18.265625 C 10.226562 -18.265625 11.425781 -18.582031 12.28125 -19.21875 C 13.144531 -19.863281 13.578125 -21.125 13.578125 -23 L 13.578125 -26.3125 C 13.578125 -27.882812 13.269531 -29.066406 12.65625 -29.859375 C 12.050781 -30.648438 11.023438 -31.046875 9.578125 -31.046875 L 5.828125 -31.046875 L 5.828125 -18.265625 Z M 8.6875 -18.265625 "/></g></g></g><g fill="#7c631d" fill-opacity="1"><g transform="translate(225.802096, 248.213773)"><g><path d="M 14.265625 -19.25 L 14.265625 -15.796875 L 5.828125 -15.796875 L 5.828125 -3.5 L 16.1875 -3.5 L 16.1875 0 L 1.96875 0 L 1.96875 -34.546875 L 16.1875 -34.546875 L 16.1875 -31.046875 L 5.828125 -31.046875 L 5.828125 -19.25 Z M 14.265625 -19.25 "/></g></g></g><g fill="#7c631d" fill-opacity="1"><g transform="translate(255.914509, 248.213773)"><g><path d="M 10.0625 -34.546875 C 12.757812 -34.546875 14.742188 -33.78125 16.015625 -32.25 C 17.285156 -30.726562 17.921875 -28.632812 17.921875 -25.96875 L 17.921875 -8.546875 C 17.921875 -5.878906 17.285156 -3.785156 16.015625 -2.265625 C 14.742188 -0.753906 12.757812 0 10.0625 0 L 1.96875 0 L 1.96875 -34.546875 Z M 10.015625 -3.5 C 11.398438 -3.5 12.425781 -3.914062 13.09375 -4.75 C 13.769531 -5.59375 14.109375 -6.804688 14.109375 -8.390625 L 14.109375 -26.15625 C 14.109375 -27.738281 13.769531 -28.945312 13.09375 -29.78125 C 12.425781 -30.625 11.382812 -31.046875 9.96875 -31.046875 L 5.828125 -31.046875 L 5.828125 -3.5 Z M 10.015625 -3.5 "/></g></g></g><g fill="#7c631d" fill-opacity="1"><g transform="translate(287.803858, 248.213773)"><g><path d="M 5.828125 -34.546875 L 5.828125 0 L 1.96875 0 L 1.96875 -34.546875 Z M 5.828125 -34.546875 "/></g></g></g><g fill="#7c631d" fill-opacity="1"><g transform="translate(307.945664, 248.213773)"><g><path d="M 7.015625 0 L 7.015625 -31.046875 L 0.640625 -31.046875 L 0.640625 -34.546875 L 17.21875 -34.546875 L 17.21875 -31.046875 L 10.859375 -31.046875 L 10.859375 0 Z M 7.015625 0 "/></g></g></g><g fill="#7c631d" fill-opacity="1"><g transform="translate(63.762129, 265.288451)"><g><path d="M 19.984375 0 L 19.984375 -2.25 L 39.734375 -2.25 C 43.472656 -2.25 46.203125 -3.332031 47.921875 -5.5 C 49.648438 -7.664062 50.515625 -11.21875 50.515625 -16.15625 L 50.515625 -141.421875 C 43.628906 -131.242188 38.085938 -124.097656 33.890625 -119.984375 C 29.703125 -115.867188 25.4375 -113.8125 21.09375 -113.8125 C 17.207031 -113.8125 14.03125 -115.269531 11.5625 -118.1875 C 9.09375 -121.101562 7.859375 -125.332031 7.859375 -130.875 C 16.085938 -131.019531 23.082031 -131.765625 28.84375 -133.109375 C 34.601562 -134.460938 39.914062 -136.820312 44.78125 -140.1875 C 49.644531 -143.550781 54.847656 -148.226562 60.390625 -154.21875 L 66.890625 -161.1875 L 88.21875 -161.1875 L 88.21875 -16.15625 C 88.21875 -12.269531 88.925781 -8.976562 90.34375 -6.28125 C 91.769531 -3.59375 94.804688 -2.25 99.453125 -2.25 L 116.734375 -2.25 L 116.734375 0 Z M 19.984375 0 "/></g></g></g><g mask="url(#cbe8e32cfe)"><g transform="matrix(1, 0, 0, 1, 78, 7)"><g clip-path="url(#44d8c86af0)"><g fill="#c2b06a" fill-opacity="1"><g transform="translate(18.738766, 92.932342)"><g><path d="M 1.609375 -4.53125 L 6.078125 -8.78125 L 7.578125 -7.203125 L 1.359375 -1.296875 L -8.46875 -11.640625 L -6.71875 -13.296875 Z M 1.609375 -4.53125 "/></g></g></g><g fill="#c2b06a" fill-opacity="1"><g transform="translate(28.1667, 83.976959)"><g><path d="M 6.96875 -9.203125 L 1.203125 -4.90625 L 2.03125 -1.515625 L 0.015625 -0.015625 L -3.453125 -15.21875 L -1.5 -16.6875 L 12.046875 -8.984375 L 9.984375 -7.453125 Z M 4.953125 -10.375 L -1 -13.84375 L 0.640625 -7.171875 Z M 4.953125 -10.375 "/></g></g></g><g fill="#c2b06a" fill-opacity="1"><g transform="translate(42.247202, 73.911563)"><g/></g></g><g fill="#c2b06a" fill-opacity="1"><g transform="translate(48.489037, 69.844976)"><g><path d="M 15.421875 -7.078125 L 13.40625 -6.15625 L 8.921875 -15.84375 L 8.65625 -5.609375 L 7.234375 -4.953125 L -0.6875 -11.4375 L 3.765625 -1.734375 L 1.703125 -0.78125 L -4.25 -13.75 L -1.65625 -14.9375 L 6.578125 -8.296875 L 6.890625 -18.859375 L 9.46875 -20.046875 Z M 15.421875 -7.078125 "/></g></g></g><g fill="#c2b06a" fill-opacity="1"><g transform="translate(67.393826, 61.424336)"><g><path d="M -0.578125 -12.5625 C 0.453125 -14.289062 1.988281 -15.445312 4.03125 -16.03125 C 6.082031 -16.613281 8 -16.4375 9.78125 -15.5 C 11.5625 -14.570312 12.726562 -13.128906 13.28125 -11.171875 C 13.84375 -9.210938 13.609375 -7.363281 12.578125 -5.625 C 11.554688 -3.882812 10.019531 -2.722656 7.96875 -2.140625 C 5.925781 -1.554688 4.007812 -1.738281 2.21875 -2.6875 C 0.4375 -3.632812 -0.726562 -5.085938 -1.28125 -7.046875 C -1.84375 -9.003906 -1.609375 -10.84375 -0.578125 -12.5625 Z M 4.65625 -13.953125 C 3.289062 -13.566406 2.253906 -12.769531 1.546875 -11.5625 C 0.847656 -10.363281 0.691406 -9.082031 1.078125 -7.71875 C 1.460938 -6.363281 2.273438 -5.347656 3.515625 -4.671875 C 4.753906 -4.003906 6.046875 -3.859375 7.390625 -4.234375 C 8.742188 -4.617188 9.765625 -5.421875 10.453125 -6.640625 C 11.148438 -7.859375 11.304688 -9.144531 10.921875 -10.5 C 10.535156 -11.863281 9.726562 -12.875 8.5 -13.53125 C 7.28125 -14.195312 6 -14.335938 4.65625 -13.953125 Z M 4.65625 -13.953125 "/></g></g></g><g fill="#c2b06a" fill-opacity="1"><g transform="translate(85.168269, 56.54697)"><g><path d="M 14.125 -1.875 L 11.78125 -1.5625 L 2.90625 -10.703125 L 4.25 -0.5625 L 1.859375 -0.25 L -0.015625 -14.390625 L 2.328125 -14.703125 L 11.25 -5.546875 L 9.90625 -15.703125 L 12.25 -16.015625 Z M 14.125 -1.875 "/></g></g></g><g fill="#c2b06a" fill-opacity="1"><g transform="translate(103.10469, 54.305008)"><g><path d="M 14.25 0.15625 L 11.890625 0.125 L 4.390625 -10.1875 L 4.28125 0.046875 L 1.875 0.015625 L 2.03125 -14.25 L 4.390625 -14.21875 L 11.9375 -3.890625 L 12.046875 -14.140625 L 14.40625 -14.109375 Z M 14.25 0.15625 "/></g></g></g><g fill="#c2b06a" fill-opacity="1"><g transform="translate(121.205245, 54.673988)"><g><path d="M 11.453125 -1.53125 L 4.328125 -2.609375 L 2.5 0.375 L 0.015625 0 L 8.375 -13.171875 L 10.8125 -12.796875 L 14.859375 2.234375 L 12.3125 1.859375 Z M 10.859375 -3.78125 L 9.15625 -10.46875 L 5.546875 -4.578125 Z M 10.859375 -3.78125 "/></g></g></g><g fill="#c2b06a" fill-opacity="1"><g transform="translate(138.24047, 57.581814)"><g><path d="M 4.140625 1.0625 L 1.8125 0.46875 L 5.359375 -13.34375 L 7.6875 -12.75 Z M 4.140625 1.0625 "/></g></g></g><g fill="#c2b06a" fill-opacity="1"><g transform="translate(146.452083, 59.622703)"><g><path d="M 15.46875 -7.296875 L 8.140625 -9.9375 L 6.84375 -6.328125 L 13.390625 -3.96875 L 12.640625 -1.921875 L 6.09375 -4.28125 L 4.765625 -0.578125 L 12.3125 2.140625 L 11.578125 4.171875 L 1.765625 0.640625 L 6.609375 -12.78125 L 16.203125 -9.328125 Z M 15.46875 -7.296875 "/></g></g></g><g fill="#c2b06a" fill-opacity="1"><g transform="translate(161.106196, 65.221976)"><g/></g></g><g fill="#c2b06a" fill-opacity="1"><g transform="translate(167.984708, 68.278244)"><g><path d="M 8.9375 -11.265625 L 13.96875 -8.265625 C 15.789062 -7.171875 16.953125 -5.6875 17.453125 -3.8125 C 17.960938 -1.945312 17.6875 -0.128906 16.625 1.640625 C 15.5625 3.421875 14.082031 4.523438 12.1875 4.953125 C 10.300781 5.378906 8.429688 5.039062 6.578125 3.9375 L 1.609375 0.96875 Z M 9.890625 -8.1875 L 4.78125 0.359375 L 7.796875 2.15625 C 8.992188 2.875 10.234375 3.070312 11.515625 2.75 C 12.796875 2.425781 13.804688 1.644531 14.546875 0.40625 C 15.285156 -0.832031 15.484375 -2.101562 15.140625 -3.40625 C 14.804688 -4.707031 14.03125 -5.71875 12.8125 -6.4375 Z M 9.890625 -8.1875 "/></g></g></g><g fill="#c2b06a" fill-opacity="1"><g transform="translate(183.158945, 77.606586)"><g><path d="M 17 -1.984375 L 10.890625 -6.828125 L 8.5 -3.8125 L 13.953125 0.515625 L 12.59375 2.203125 L 7.140625 -2.125 L 4.703125 0.96875 L 10.984375 5.96875 L 9.640625 7.65625 L 1.46875 1.171875 L 10.328125 -10 L 18.328125 -3.671875 Z M 17 -1.984375 "/></g></g></g><g fill="#c2b06a" fill-opacity="1"><g transform="translate(195.266579, 87.581461)"><g/></g></g><g fill="#c2b06a" fill-opacity="1"><g transform="translate(200.830049, 92.536007)"><g><path d="M 10.875 13.015625 L 9.453125 11.3125 L 17.625 4.453125 L 7.6875 6.890625 L 6.6875 5.671875 L 10.84375 -3.671875 L 2.65625 3.171875 L 1.203125 1.4375 L 12.15625 -7.703125 L 13.984375 -5.5 L 9.734375 4.171875 L 20.015625 1.703125 L 21.828125 3.875 Z M 10.875 13.015625 "/></g></g></g><g fill="#c2b06a" fill-opacity="1"><g transform="translate(213.919442, 108.566172)"><g><path d="M 11.984375 -3.84375 C 13.921875 -3.3125 15.4375 -2.132812 16.53125 -0.3125 C 17.632812 1.507812 17.96875 3.398438 17.53125 5.359375 C 17.101562 7.328125 16.015625 8.832031 14.265625 9.875 C 12.523438 10.925781 10.679688 11.1875 8.734375 10.65625 C 6.785156 10.132812 5.257812 8.960938 4.15625 7.140625 C 3.0625 5.316406 2.738281 3.414062 3.1875 1.4375 C 3.632812 -0.53125 4.726562 -2.035156 6.46875 -3.078125 C 8.21875 -4.128906 10.054688 -4.382812 11.984375 -3.84375 Z M 14.6875 0.8125 C 13.957031 -0.394531 12.914062 -1.175781 11.5625 -1.53125 C 10.21875 -1.894531 8.941406 -1.710938 7.734375 -0.984375 C 6.523438 -0.265625 5.757812 0.78125 5.4375 2.15625 C 5.113281 3.53125 5.3125 4.816406 6.03125 6.015625 C 6.75 7.222656 7.785156 8 9.140625 8.34375 C 10.503906 8.6875 11.789062 8.492188 13 7.765625 C 14.207031 7.046875 14.96875 6.003906 15.28125 4.640625 C 15.601562 3.285156 15.40625 2.007812 14.6875 0.8125 Z M 14.6875 0.8125 "/></g></g></g><g fill="#c2b06a" fill-opacity="1"><g transform="translate(223.294948, 124.43482)"><g><path d="M 5.515625 13.140625 L 4.609375 10.96875 L 11.09375 -0.015625 L 1.65625 3.953125 L 0.71875 1.734375 L 13.875 -3.796875 L 14.796875 -1.625 L 8.3125 9.40625 L 17.765625 5.4375 L 18.671875 7.609375 Z M 5.515625 13.140625 "/></g></g></g><g fill="#c2b06a" fill-opacity="1"><g transform="translate(230.049541, 141.494467)"><g><path d="M 1.234375 4.09375 L 0.546875 1.796875 L 14.203125 -2.3125 L 14.890625 -0.015625 Z M 1.234375 4.09375 "/></g></g></g><g fill="#c2b06a" fill-opacity="1"><g transform="translate(232.558794, 149.555138)"><g><path d="M 8.921875 6.890625 L 2.640625 13.4375 L 2.078125 10.609375 L 6.640625 5.78125 L 0.609375 3.0625 L 0.0625 0.3125 L 8.234375 3.984375 L 14.125 -2.09375 L 14.671875 0.65625 L 10.484375 5.03125 L 16.015625 7.5 L 16.5625 10.28125 Z M 8.921875 6.890625 "/></g></g></g></g></g></g></svg>