<svg xmlns="http://www.w3.org/2000/svg" xmlns:xlink="http://www.w3.org/1999/xlink" width="500" zoomAndPan="magnify" viewBox="0 0 375 374.999991" height="500" preserveAspectRatio="xMidYMid meet" version="1.0"><defs><filter x="0%" y="0%" width="100%" height="100%" id="fa362d97fa"><feColorMatrix values="0 0 0 0 1 0 0 0 0 1 0 0 0 0 1 0 0 0 1 0" color-interpolation-filters="sRGB"/></filter><g/><mask id="1d28be194d"><g filter="url(#fa362d97fa)"><rect x="-37.5" width="450" fill="#000000" y="-37.499999" height="449.999989" fill-opacity="0.8471"/></g></mask><clipPath id="3235d5c2e0"><path d="M 1 0.078125 L 342.210938 0.078125 L 342.210938 356 L 1 356 Z M 1 0.078125 " clip-rule="nonzero"/></clipPath><clipPath id="4ab42dca95"><rect x="0" width="343" y="0" height="357"/></clipPath><clipPath id="773171abbd"><path d="M 132.480469 114.574219 L 292.980469 114.574219 L 292.980469 299 L 132.480469 299 Z M 132.480469 114.574219 " clip-rule="nonzero"/></clipPath></defs><rect x="-37.5" width="450" fill="#ffffff" y="-37.499999" height="449.999989" fill-opacity="1"/><rect x="-37.5" width="450" fill="#ffffff" y="-37.499999" height="449.999989" fill-opacity="1"/><rect x="-37.5" width="450" fill="#ffffff" y="-37.499999" height="449.999989" fill-opacity="1"/><g mask="url(#1d28be194d)"><g transform="matrix(1, 0, 0, 1, 16, 10)"><g clip-path="url(#4ab42dca95)"><g clip-path="url(#3235d5c2e0)"><path fill="#ffcc3b" d="M 334.546875 178.101562 C 334.546875 159.730469 346.085938 139.710938 340.726562 123.148438 C 335.121094 105.929688 313.855469 96.621094 303.472656 82.285156 C 292.921875 67.871094 290.613281 44.800781 276.105469 34.257812 C 261.761719 23.875 239.175781 28.65625 221.949219 23.050781 C 205.382812 17.695312 189.96875 0.3125 171.585938 0.3125 C 153.207031 0.3125 137.792969 17.695312 121.222656 23.050781 C 103.996094 28.65625 81.410156 23.792969 67.070312 34.257812 C 52.5625 44.800781 50.171875 67.871094 39.703125 82.285156 C 29.316406 96.621094 7.96875 105.929688 2.445312 123.148438 C -2.914062 139.710938 8.628906 159.730469 8.628906 178.101562 C 8.628906 196.472656 -2.914062 216.492188 2.445312 233.050781 C 7.96875 250.1875 29.234375 259.496094 39.703125 273.832031 C 50.253906 288.25 52.5625 311.398438 67.070312 321.863281 C 81.410156 332.242188 103.996094 327.464844 121.222656 333.066406 C 137.792969 338.421875 153.207031 355.804688 171.585938 355.804688 C 189.96875 355.804688 205.382812 338.421875 221.949219 333.066406 C 239.175781 327.464844 261.761719 332.324219 276.105469 321.863281 C 290.53125 311.316406 292.921875 288.25 303.472656 273.832031 C 313.855469 259.496094 335.207031 250.1875 340.726562 232.96875 C 346.167969 216.410156 334.546875 196.472656 334.546875 178.101562 Z M 334.546875 178.101562 " fill-opacity="1" fill-rule="nonzero"/></g><path fill="#7c631d" d="M 171.585938 338.667969 C 161.285156 338.667969 152.132812 332.902344 143.230469 327.300781 C 137.378906 323.59375 131.773438 320.050781 126.003906 318.238281 C 119.90625 316.261719 112.816406 315.765625 105.972656 315.273438 C 95.671875 314.53125 85.039062 313.789062 77.125 308.023438 C 69.128906 302.171875 65.089844 292.285156 61.214844 282.648438 C 58.660156 276.304688 56.023438 269.796875 52.3125 264.6875 C 48.6875 259.664062 43.328125 255.214844 38.136719 250.847656 C 30.140625 244.171875 21.816406 237.253906 18.765625 227.695312 C 15.796875 218.550781 18.355469 208.335938 20.828125 198.449219 C 22.476562 191.695312 24.289062 184.691406 24.289062 178.101562 C 24.289062 171.511719 22.558594 164.507812 20.828125 157.75 C 18.355469 147.867188 15.796875 137.566406 18.765625 128.503906 C 21.898438 118.949219 30.140625 112.027344 38.136719 105.355469 C 43.328125 101.070312 48.6875 96.539062 52.3125 91.515625 C 56.023438 86.40625 58.660156 79.898438 61.214844 73.554688 C 65.089844 63.914062 69.128906 54.027344 77.125 48.179688 C 85.039062 42.414062 95.671875 41.671875 105.972656 40.929688 C 112.816406 40.433594 119.90625 39.941406 126.003906 37.964844 C 131.773438 36.070312 137.296875 32.609375 143.230469 28.902344 C 152.132812 23.300781 161.285156 17.53125 171.585938 17.53125 C 181.890625 17.53125 191.039062 23.300781 199.941406 28.902344 C 205.792969 32.609375 211.398438 36.152344 217.167969 37.964844 C 223.269531 39.941406 230.359375 40.433594 237.199219 40.929688 C 247.503906 41.671875 258.136719 42.414062 266.046875 48.179688 C 274.042969 54.027344 278.082031 63.914062 281.957031 73.554688 C 284.511719 79.898438 287.148438 86.40625 290.859375 91.515625 C 294.484375 96.539062 299.84375 100.988281 305.035156 105.355469 C 313.03125 112.027344 321.359375 118.949219 324.40625 128.503906 C 327.375 137.648438 324.820312 147.867188 322.347656 157.75 C 320.699219 164.507812 318.882812 171.511719 318.882812 178.101562 C 318.882812 184.691406 320.617188 191.695312 322.347656 198.449219 C 324.820312 208.335938 327.375 218.632812 324.40625 227.695312 C 321.273438 237.253906 313.03125 244.171875 305.035156 250.847656 C 299.84375 255.132812 294.484375 259.664062 290.859375 264.6875 C 287.148438 269.796875 284.511719 276.304688 281.957031 282.648438 C 278.082031 292.285156 274.042969 302.171875 266.046875 308.023438 C 258.136719 313.789062 247.503906 314.53125 237.199219 315.273438 C 230.359375 315.765625 223.269531 316.261719 217.167969 318.238281 C 211.398438 320.132812 205.875 323.59375 199.941406 327.300781 C 191.039062 332.820312 181.890625 338.667969 171.585938 338.667969 Z M 171.585938 20.003906 C 162.023438 20.003906 153.121094 25.605469 144.550781 30.960938 C 138.78125 34.585938 132.847656 38.375 126.746094 40.269531 C 120.316406 42.332031 113.144531 42.824219 106.140625 43.320312 C 95.753906 44.058594 85.945312 44.71875 78.527344 50.074219 C 71.109375 55.511719 67.234375 65.070312 63.441406 74.378906 C 60.804688 80.804688 58.167969 87.558594 54.210938 92.914062 C 50.335938 98.1875 44.894531 102.71875 39.621094 107.167969 C 31.871094 113.59375 23.875 120.265625 20.992188 129.164062 C 18.273438 137.566406 20.578125 147.042969 23.136719 157.09375 C 24.867188 164.011719 26.597656 171.179688 26.597656 178.019531 C 26.597656 184.855469 24.785156 192.023438 23.136719 198.945312 C 20.660156 208.996094 18.273438 218.386719 20.992188 226.871094 C 23.875 235.769531 31.871094 242.445312 39.621094 248.871094 C 44.894531 253.320312 50.417969 257.851562 54.210938 263.121094 C 58.085938 268.476562 60.804688 275.152344 63.441406 281.660156 C 67.152344 290.96875 71.023438 300.523438 78.527344 305.960938 C 85.863281 311.316406 95.671875 311.976562 106.140625 312.71875 C 113.144531 313.210938 120.398438 313.707031 126.746094 315.765625 C 132.847656 317.742188 138.78125 321.449219 144.550781 325.074219 C 153.121094 330.511719 162.023438 336.03125 171.585938 336.03125 C 181.148438 336.03125 190.050781 330.429688 198.621094 325.074219 C 204.394531 321.449219 210.328125 317.660156 216.425781 315.765625 C 222.855469 313.707031 230.027344 313.210938 237.035156 312.71875 C 247.421875 311.976562 257.230469 311.316406 264.648438 305.960938 C 272.066406 300.523438 275.941406 290.96875 279.730469 281.660156 C 282.371094 275.234375 285.007812 268.476562 288.964844 263.121094 C 292.835938 257.851562 298.277344 253.320312 303.554688 248.871094 C 311.300781 242.445312 319.296875 235.769531 322.183594 226.871094 C 324.902344 218.46875 322.59375 208.996094 320.039062 198.945312 C 318.308594 192.023438 316.578125 184.855469 316.578125 178.019531 C 316.578125 171.097656 318.390625 164.011719 320.039062 157.09375 C 322.511719 147.042969 324.902344 137.648438 322.183594 129.164062 C 319.296875 120.265625 311.300781 113.59375 303.554688 107.167969 C 298.277344 102.71875 292.753906 98.1875 288.964844 92.914062 C 285.089844 87.558594 282.371094 80.886719 279.730469 74.378906 C 276.023438 65.070312 272.148438 55.511719 264.648438 50.074219 C 257.3125 44.71875 247.503906 44.058594 237.035156 43.320312 C 230.027344 42.824219 222.773438 42.332031 216.425781 40.269531 C 210.328125 38.292969 204.394531 34.585938 198.621094 30.960938 C 189.96875 25.523438 181.148438 20.003906 171.585938 20.003906 Z M 171.585938 20.003906 " fill-opacity="1" fill-rule="nonzero"/></g></g></g><g clip-path="url(#773171abbd)"><path fill="#c2b06a" d="M 208.925781 114.574219 C 197.5625 114.574219 189.714844 120.355469 185.726562 128.171875 C 181.757812 135.992188 180.914062 145.527344 180.914062 154.59375 L 180.914062 174.605469 C 180.914062 175.886719 180.492188 177.902344 179.882812 179.105469 L 179.851562 179.203125 L 179.804688 179.296875 C 179.898438 179.089844 178.101562 181.796875 175.847656 184.984375 C 173.597656 188.191406 170.738281 192.425781 167.9375 197.570312 C 162.46875 207.621094 157.199219 221.207031 156.949219 237.4375 C 156.324219 237.984375 155.777344 238.53125 155.261719 239.03125 C 152.929688 241.359375 151.289062 243.8125 148.695312 245.644531 L 148.210938 246.003906 L 147.835938 246.472656 C 147.898438 246.394531 147.882812 246.519531 147.117188 246.691406 C 146.351562 246.847656 145.050781 246.957031 143.550781 247.097656 C 142.035156 247.238281 140.253906 247.425781 138.363281 248.222656 C 136.484375 249.035156 134.5 250.707031 133.484375 253.039062 C 132.671875 254.882812 132.84375 256.804688 133.234375 258.195312 C 133.609375 259.589844 134.140625 260.714844 134.640625 261.824219 C 135.609375 264.042969 136.453125 266.109375 136.453125 268.671875 C 136.453125 268.953125 136.328125 269.34375 135.828125 270.171875 C 135.3125 271 134.328125 272.03125 133.796875 274.175781 L 133.734375 274.363281 C 133.53125 275.410156 133.25 276.441406 133.15625 277.832031 C 133.0625 279.222656 133.328125 280.976562 134.09375 282.492188 L 134.203125 282.726562 L 134.34375 282.914062 C 135.578125 284.773438 137.859375 286.632812 141.082031 287.777344 C 144.300781 288.902344 148.882812 289.917969 156.761719 291.542969 C 160.511719 292.371094 164.375 293.886719 168.03125 295.34375 C 171.707031 296.796875 175.035156 298.21875 178.601562 298.546875 C 181.476562 298.8125 185.757812 298.96875 189.808594 296.65625 C 192.949219 294.875 195.40625 291.433594 196.390625 286.664062 L 233.25 286.664062 C 233.832031 290.386719 235.222656 293.324219 237.691406 295.296875 C 240.066406 297.515625 243.710938 298.671875 249.242188 298.671875 C 255.402344 298.671875 260.171875 296.015625 263.890625 292.292969 C 265.847656 290.339844 267.644531 289.417969 274.148438 284.773438 C 276.601562 283.210938 279.851562 281.351562 282.714844 279.675781 C 284.136719 278.847656 285.464844 278.066406 286.574219 277.363281 C 287.683594 276.660156 288.449219 276.253906 289.417969 275.285156 L 289.433594 275.269531 L 289.449219 275.269531 C 289.433594 275.269531 290.265625 274.769531 291.265625 273.519531 C 292.265625 272.265625 292.96875 270.265625 292.96875 268.1875 C 292.96875 265.9375 291.84375 263.808594 290.53125 262.621094 C 289.402344 261.589844 288.292969 261.105469 287.371094 260.777344 C 285.292969 259.761719 283.246094 258.886719 281.023438 255.632812 C 281.226562 255.898438 280.632812 253.804688 280.273438 251.445312 C 279.898438 249.035156 279.585938 246.175781 277.414062 243.5 C 277.085938 243.078125 276.695312 242.703125 276.273438 242.390625 C 276.648438 238.734375 276.960938 234.761719 276.960938 230.636719 C 276.960938 217.988281 269.707031 205.480469 261.78125 194.101562 C 253.886719 182.734375 248.132812 176.683594 244.929688 163.425781 L 244.945312 163.425781 C 243.257812 156.5 243.023438 154.453125 242.789062 152.328125 C 242.554688 150.183594 242.304688 147.824219 240.832031 141.679688 C 239.457031 135.191406 237.941406 128.453125 233.203125 123.109375 C 228.4375 117.730469 220.667969 114.574219 208.925781 114.574219 Z M 208.925781 122.578125 C 219.324219 122.578125 224.199219 125 227.21875 128.40625 C 230.234375 131.816406 231.671875 137.070312 233.015625 143.433594 L 233.046875 143.464844 L 233.046875 143.527344 C 234.472656 149.464844 234.597656 150.96875 234.832031 153.1875 C 235.066406 155.40625 235.425781 158.175781 237.144531 165.304688 C 240.738281 180.1875 247.601562 187.722656 255.214844 198.664062 C 262.8125 209.59375 268.957031 221.222656 268.957031 230.636719 C 268.957031 234.371094 268.675781 238.109375 268.332031 241.546875 C 268.082031 241.625 267.832031 241.703125 267.613281 241.78125 C 266.394531 240.890625 264.953125 240.265625 263.390625 239.828125 C 261.3125 239.078125 259.265625 238.515625 256.886719 238.453125 C 255.402344 238.296875 254.011719 238.34375 252.714844 238.515625 C 250.542969 198.882812 232.6875 187.207031 227 175.449219 C 227.015625 175.417969 227.046875 175.402344 227.0625 175.355469 C 228.40625 173.292969 228.625 171.148438 228.859375 168.710938 C 228.890625 168.460938 228.875 168.210938 228.875 167.976562 C 231.40625 164.457031 232.9375 159.800781 232.9375 154.59375 C 232.9375 143.371094 225.90625 134.582031 216.929688 134.582031 C 211.835938 134.582031 208.691406 136.367188 206.910156 140.539062 C 205.097656 136.414062 201.988281 134.582031 196.921875 134.582031 C 194.90625 134.582031 193.011719 135.082031 191.246094 135.894531 C 191.714844 134.425781 192.230469 133.050781 192.855469 131.800781 C 195.8125 126.015625 199.96875 122.578125 208.925781 122.578125 Z M 196.921875 142.585938 C 201.34375 142.585938 204.925781 147.964844 204.925781 154.59375 C 204.925781 154.625 204.925781 154.640625 204.925781 154.65625 C 204.597656 154.640625 204.285156 154.59375 203.941406 154.59375 C 202.800781 154.59375 201.734375 154.765625 200.71875 155.03125 C 200.234375 152.484375 198.765625 150.59375 196.921875 150.59375 C 194.71875 150.59375 192.917969 153.28125 192.917969 156.59375 C 192.917969 157.40625 193.027344 158.175781 193.230469 158.878906 C 192.152344 159.691406 191.324219 160.378906 190.839844 160.863281 C 190.667969 161.019531 190.511719 161.144531 190.355469 161.285156 C 189.464844 159.363281 188.917969 157.09375 188.917969 154.59375 C 188.917969 147.964844 192.496094 142.585938 196.921875 142.585938 Z M 216.929688 142.585938 C 221.355469 142.585938 224.933594 147.964844 224.933594 154.59375 C 224.933594 156.875 224.464844 158.957031 223.730469 160.769531 C 222.558594 160.269531 221.433594 159.894531 220.308594 159.613281 C 220.667969 158.722656 220.933594 157.722656 220.933594 156.59375 C 220.933594 153.28125 219.136719 150.59375 216.929688 150.59375 C 214.726562 150.59375 212.929688 153.28125 212.929688 156.59375 C 212.929688 156.609375 212.929688 156.625 212.929688 156.640625 C 211.710938 156.140625 210.382812 155.671875 208.972656 155.296875 C 208.957031 155.0625 208.925781 154.828125 208.925781 154.59375 C 208.925781 147.964844 212.507812 142.585938 216.929688 142.585938 Z M 203.941406 162.597656 C 205.566406 162.597656 207.925781 163.238281 210.085938 164.113281 C 212.242188 164.992188 214.070312 165.960938 215.601562 166.601562 L 215.914062 166.742188 L 216.242188 166.804688 C 218.277344 167.289062 220.105469 167.804688 220.855469 168.195312 C 220.652344 169.914062 220.449219 170.851562 220.355469 170.992188 C 220.246094 171.164062 219.683594 171.695312 217.632812 172.792969 C 215.101562 173.699219 213.179688 175.167969 211.117188 176.417969 C 208.847656 177.777344 206.550781 178.605469 206.222656 178.605469 C 204.472656 178.605469 202.050781 178.480469 201.078125 178.277344 C 201.453125 178.386719 200.796875 178.058594 199.96875 177.292969 C 199.078125 176.449219 197.96875 175.292969 196.84375 174.089844 L 196.546875 173.792969 L 196.234375 173.574219 C 194.953125 172.667969 193.949219 171.851562 193.464844 171.273438 C 192.964844 170.679688 192.917969 170.507812 192.917969 170.117188 C 192.917969 169.523438 192.808594 169.882812 193.167969 169.476562 C 193.527344 169.054688 194.625 168.195312 196.109375 166.882812 L 196.25 166.773438 L 196.375 166.632812 C 196.15625 166.867188 197.609375 165.445312 199.1875 164.410156 C 200.765625 163.378906 202.722656 162.597656 203.941406 162.597656 Z M 188.621094 177.683594 C 188.730469 177.792969 188.839844 177.917969 188.964844 178.011719 C 188.933594 178.214844 188.917969 178.402344 188.917969 178.605469 L 188.917969 182.375 C 188.886719 182.765625 187.917969 185.53125 186.105469 188.785156 C 184.273438 192.050781 181.773438 196.054688 179.257812 200.492188 C 174.222656 209.34375 168.90625 219.832031 168.90625 230.636719 C 168.90625 233.027344 169.4375 235.277344 170.222656 237.390625 C 170.0625 237.25 169.90625 237.078125 169.734375 236.953125 C 168.46875 235.933594 167.03125 234.996094 165.0625 234.746094 C 165.8125 221.425781 170.238281 210.09375 174.972656 201.402344 C 177.566406 196.632812 180.226562 192.675781 182.398438 189.613281 C 184.523438 186.582031 185.992188 184.953125 187.042969 182.625 C 187.855469 181.015625 188.339844 179.34375 188.621094 177.683594 Z M 220.417969 180.296875 C 227.796875 194.820312 243.101562 203.074219 244.757812 239.953125 C 243.476562 240.125 242.195312 240.46875 241.128906 241.25 C 239.691406 242.296875 238.894531 243.625 238.316406 244.816406 C 237.660156 246.128906 237.222656 247.644531 237.066406 249.160156 C 236.925781 250.691406 236.941406 252.289062 236.941406 254.648438 C 236.941406 258.429688 236.910156 262.605469 236.503906 265.433594 L 236.503906 265.527344 C 236.488281 265.542969 236.488281 265.558594 236.488281 265.589844 C 235.628906 267.3125 229.484375 278.660156 212.929688 278.660156 C 203.300781 278.660156 197.375 274.894531 193.902344 271.390625 C 193.464844 270.75 193.027344 270.15625 192.589844 269.546875 C 194.921875 268.78125 197.515625 267.71875 199.453125 264.949219 L 199.546875 264.839844 L 199.609375 264.714844 C 200.84375 262.667969 201.09375 260.324219 200.796875 258.480469 C 200.484375 256.632812 199.734375 255.195312 199.03125 254.132812 C 198.359375 253.132812 197.890625 252.867188 197.390625 252.476562 C 196.890625 252.101562 196.375 251.773438 195.796875 251.414062 C 194.65625 250.691406 193.308594 249.941406 191.917969 249.144531 C 189.152344 247.550781 186.074219 245.691406 184.976562 244.753906 C 183.648438 243.625 181.445312 241.234375 179.742188 238.5625 C 178.050781 235.871094 176.910156 232.886719 176.910156 230.636719 C 176.910156 222.601562 181.367188 212.953125 186.214844 204.449219 C 188.636719 200.195312 191.105469 196.226562 193.089844 192.691406 C 194.65625 189.894531 195.984375 187.519531 196.578125 184.921875 C 197.109375 185.28125 197.71875 185.625 198.53125 185.90625 L 198.671875 185.953125 L 198.828125 186 C 201.609375 186.738281 204.410156 186.613281 206.222656 186.613281 C 209.992188 186.613281 212.710938 184.796875 215.242188 183.28125 C 217.679688 181.8125 219.964844 180.484375 220.417969 180.296875 Z M 164.109375 242.640625 C 163.46875 242.640625 163.984375 242.59375 164.765625 243.21875 C 165.546875 243.84375 166.609375 244.925781 167.65625 246.175781 C 169.75 248.691406 171.910156 251.929688 173.222656 254.101562 L 173.285156 254.226562 L 173.363281 254.335938 C 176.503906 258.808594 176.910156 260.089844 181.601562 267.578125 L 181.523438 267.40625 C 181.789062 267.890625 182.039062 268.28125 182.304688 268.71875 C 182.320312 268.75 182.335938 268.78125 182.351562 268.828125 C 182.351562 268.828125 182.367188 268.828125 182.367188 268.84375 C 182.492188 269.125 182.664062 269.390625 182.851562 269.640625 C 183.242188 270.375 184.148438 272.03125 186.371094 274.628906 C 186.683594 275.050781 187.089844 275.582031 187.339844 275.957031 C 188.574219 277.863281 189.074219 278.894531 188.886719 281.835938 L 188.871094 281.960938 L 188.871094 282.085938 C 188.871094 287.386719 187.480469 288.777344 185.851562 289.699219 C 184.226562 290.621094 181.539062 290.777344 179.320312 290.574219 C 177.769531 290.433594 174.628906 289.339844 170.972656 287.902344 C 167.328125 286.445312 163.078125 284.742188 158.480469 283.726562 L 158.449219 283.726562 L 158.417969 283.710938 C 150.570312 282.101562 146.082031 281.039062 143.753906 280.226562 C 141.582031 279.441406 141.675781 279.332031 141.175781 278.597656 C 141.175781 278.550781 141.128906 278.503906 141.144531 278.363281 C 141.160156 278.050781 141.332031 277.222656 141.550781 276.128906 C 141.550781 276.128906 141.550781 276.113281 141.550781 276.113281 C 141.488281 276.410156 141.878906 275.597656 142.644531 274.347656 C 143.410156 273.113281 144.457031 271.1875 144.457031 268.671875 C 144.457031 264.308594 142.957031 260.902344 141.957031 258.589844 C 141.441406 257.445312 141.066406 256.554688 140.957031 256.117188 C 141.066406 255.882812 141.113281 255.757812 141.519531 255.585938 C 142.003906 255.382812 143.003906 255.179688 144.300781 255.070312 C 145.597656 254.945312 147.132812 254.882812 148.851562 254.507812 C 150.554688 254.117188 152.648438 253.273438 154.148438 251.367188 C 157.324219 248.816406 159.667969 245.957031 160.902344 244.707031 C 161.839844 243.78125 162.46875 243.203125 162.859375 242.953125 C 163.265625 242.71875 163.390625 242.640625 164.109375 242.640625 Z M 253.636719 246.316406 C 254.292969 246.238281 255.105469 246.253906 256.136719 246.378906 L 256.371094 246.410156 L 256.621094 246.410156 C 256.277344 246.410156 259.671875 246.972656 260.796875 247.394531 L 260.953125 247.441406 L 261.125 247.488281 C 262.078125 247.753906 262.203125 247.941406 262.40625 248.082031 C 262.25 248.410156 262 248.753906 261.765625 249.097656 C 261.296875 249.550781 260.5 250.175781 260.078125 251.632812 C 258.921875 252.929688 256.730469 254.289062 255.511719 254.289062 C 254.761719 254.289062 253.980469 254.148438 253.558594 253.976562 C 253.433594 253.929688 253.464844 253.882812 253.386719 253.851562 L 253.386719 253.398438 C 253.386719 253.398438 253.433594 253.335938 253.558594 252.476562 C 253.652344 251.898438 253.402344 250.816406 253.199219 249.847656 C 253.121094 248.660156 252.433594 247.785156 251.980469 246.722656 C 252.058594 246.691406 252.199219 246.675781 252.292969 246.644531 L 252.949219 246.644531 C 252.949219 246.582031 252.949219 246.535156 252.949219 246.472656 C 253.183594 246.425781 253.355469 246.332031 253.636719 246.316406 Z M 262.625 246.691406 C 262.625 247.191406 262.8125 246.941406 262.890625 247.332031 C 262.859375 247.363281 262.828125 247.425781 262.796875 247.472656 Z M 271.441406 249.160156 C 271.660156 249.707031 272.082031 250.863281 272.363281 252.648438 C 272.691406 254.835938 272.519531 257.070312 274.195312 259.839844 L 274.226562 259.917969 L 274.289062 259.996094 C 277.695312 265.105469 282.214844 267.15625 283.871094 267.984375 L 284.121094 268.109375 L 284.402344 268.203125 C 284.761719 268.3125 284.917969 268.421875 285.011719 268.46875 C 285.011719 268.453125 285.011719 268.53125 285.011719 268.53125 C 285.058594 268.453125 284.714844 268.671875 283.761719 269.625 C 284.011719 269.375 283.261719 269.984375 282.324219 270.59375 C 281.351562 271.1875 280.085938 271.9375 278.664062 272.765625 C 275.851562 274.410156 272.519531 276.316406 269.785156 278.050781 L 269.707031 278.097656 L 269.613281 278.160156 C 263.078125 282.835938 260.96875 283.898438 258.234375 286.632812 C 255.324219 289.542969 253.464844 290.667969 249.242188 290.667969 C 244.523438 290.667969 243.554688 289.949219 243.070312 289.480469 L 242.882812 289.277344 L 242.648438 289.105469 C 242.382812 288.902344 240.941406 286.851562 240.941406 282.367188 C 240.941406 279.113281 243.398438 275.191406 244.429688 266.53125 C 244.960938 262.746094 244.945312 258.414062 244.945312 254.648438 C 244.945312 252.289062 244.960938 250.800781 245.039062 249.957031 C 245.054688 249.753906 245.085938 249.675781 245.101562 249.535156 C 245.226562 249.707031 245.382812 249.847656 245.382812 250.347656 L 245.382812 251.207031 L 245.585938 251.664062 C 245.523438 251.945312 245.382812 252.414062 245.382812 253.398438 L 245.382812 256.101562 L 245.757812 256.898438 C 246.773438 259.152344 248.710938 260.636719 250.511719 261.386719 C 252.308594 262.121094 254.027344 262.292969 255.511719 262.292969 C 260.796875 262.292969 264.78125 259.121094 267.144531 255.648438 L 267.847656 254.632812 L 267.847656 254.398438 C 267.894531 254.320312 267.832031 254.351562 267.910156 254.257812 L 268.175781 253.976562 L 268.378906 253.648438 C 269.597656 251.648438 270.472656 250.222656 270.144531 250.582031 Z M 181.460938 252.148438 C 183.460938 253.570312 185.789062 254.851562 187.949219 256.085938 C 189.339844 256.882812 190.636719 257.632812 191.558594 258.210938 C 191.964844 258.464844 192.261719 258.667969 192.464844 258.808594 C 192.652344 259.152344 192.855469 259.527344 192.902344 259.792969 C 192.933594 260.058594 192.886719 260.199219 192.777344 260.417969 C 192.667969 260.496094 190.902344 261.699219 189.027344 262.308594 C 188.621094 262.433594 188.324219 262.496094 187.949219 262.589844 C 184.773438 257.507812 183.335938 255.007812 181.460938 252.148438 Z M 181.460938 252.148438 " fill-opacity="1" fill-rule="nonzero"/></g><g fill="#c2b06a" fill-opacity="1"><g transform="translate(146.40936, 74.400341)"><g><path d="M 3.34375 -3.171875 L 9.03125 -4.859375 L 9.625 -2.859375 L 1.71875 -0.515625 L -2.1875 -13.671875 L 0.03125 -14.328125 Z M 3.34375 -3.171875 "/></g></g></g><g fill="#c2b06a" fill-opacity="1"><g transform="translate(158.389443, 70.842293)"><g><path d="M 9.984375 -4.84375 L 3.1875 -3.6875 L 2.390625 -0.40625 L 0.015625 0 L 3.671875 -14.546875 L 6 -14.9375 L 14.234375 -2.4375 L 11.796875 -2.015625 Z M 8.765625 -6.734375 L 5.171875 -12.3125 L 3.671875 -5.859375 Z M 8.765625 -6.734375 "/></g></g></g><g fill="#c2b06a" fill-opacity="1"><g transform="translate(174.838264, 68.362672)"><g/></g></g><g fill="#c2b06a" fill-opacity="1"><g transform="translate(181.957557, 67.602058)"><g><path d="M 16.28125 0.65625 L 14.15625 0.578125 L 14.546875 -9.65625 L 9.859375 -1.03125 L 8.375 -1.09375 L 4.40625 -10.078125 L 3.984375 0.15625 L 1.796875 0.078125 L 2.359375 -13.625 L 5.109375 -13.515625 L 9.265625 -4.234375 L 14.125 -13.15625 L 16.84375 -13.046875 Z M 16.28125 0.65625 "/></g></g></g><g fill="#c2b06a" fill-opacity="1"><g transform="translate(201.820784, 68.635029)"><g><path d="M 4.984375 -11.03125 C 6.617188 -12.0625 8.441406 -12.375 10.453125 -11.96875 C 12.472656 -11.570312 14.035156 -10.585938 15.140625 -9.015625 C 16.253906 -7.453125 16.625 -5.707031 16.25 -3.78125 C 15.875 -1.863281 14.867188 -0.382812 13.234375 0.65625 C 11.609375 1.707031 9.785156 2.03125 7.765625 1.625 C 5.753906 1.226562 4.191406 0.238281 3.078125 -1.34375 C 1.972656 -2.925781 1.609375 -4.675781 1.984375 -6.59375 C 2.359375 -8.519531 3.359375 -10 4.984375 -11.03125 Z M 10.0625 -9.9375 C 8.738281 -10.207031 7.507812 -9.972656 6.375 -9.234375 C 5.238281 -8.503906 4.539062 -7.472656 4.28125 -6.140625 C 4.019531 -4.804688 4.273438 -3.582031 5.046875 -2.46875 C 5.828125 -1.351562 6.875 -0.664062 8.1875 -0.40625 C 9.507812 -0.144531 10.726562 -0.382812 11.84375 -1.125 C 12.957031 -1.863281 13.644531 -2.898438 13.90625 -4.234375 C 14.164062 -5.566406 13.921875 -6.785156 13.171875 -7.890625 C 12.421875 -8.992188 11.382812 -9.675781 10.0625 -9.9375 Z M 10.0625 -9.9375 "/></g></g></g><g fill="#c2b06a" fill-opacity="1"><g transform="translate(219.170654, 72.20964)"><g><path d="M 12.921875 4.5625 L 10.765625 3.796875 L 7.15625 -7.921875 L 3.875 1.359375 L 1.6875 0.59375 L 6.25 -12.34375 L 8.40625 -11.578125 L 12.046875 0.15625 L 15.328125 -9.140625 L 17.484375 -8.375 Z M 12.921875 4.5625 "/></g></g></g><g fill="#c2b06a" fill-opacity="1"><g transform="translate(235.509884, 78.111943)"><g><path d="M 12.140625 6.34375 L 10.125 5.296875 L 8.203125 -6.8125 L 3.640625 1.90625 L 1.59375 0.828125 L 7.953125 -11.328125 L 9.96875 -10.265625 L 11.90625 1.875 L 16.484375 -6.859375 L 18.5 -5.8125 Z M 12.140625 6.34375 "/></g></g></g><g fill="#c2b06a" fill-opacity="1"><g transform="translate(250.851034, 86.321958)"><g><path d="M 10.46875 3.671875 L 4.84375 -0.328125 L 1.96875 1.40625 L 0.015625 0.015625 L 12.90625 -7.625 L 14.828125 -6.25 L 11.75 8.390625 L 9.734375 6.953125 Z M 10.953125 1.5 L 12.390625 -4.984375 L 6.75 -1.5 Z M 10.953125 1.5 "/></g></g></g><g fill="#c2b06a" fill-opacity="1"><g transform="translate(264.172528, 96.241732)"><g><path d="M 3.078125 2.71875 L 1.34375 1.1875 L 10.40625 -9.109375 L 12.140625 -7.578125 Z M 3.078125 2.71875 "/></g></g></g><g fill="#c2b06a" fill-opacity="1"><g transform="translate(270.315188, 101.570877)"><g><path d="M 16.421875 0.484375 L 11.296875 -4.96875 L 8.59375 -2.4375 L 13.171875 2.453125 L 11.65625 3.875 L 7.078125 -1.015625 L 4.328125 1.578125 L 9.609375 7.203125 L 8.09375 8.625 L 1.234375 1.3125 L 11.234375 -8.078125 L 17.9375 -0.9375 Z M 16.421875 0.484375 "/></g></g></g><g fill="#c2b06a" fill-opacity="1"><g transform="translate(280.423628, 112.757258)"><g/></g></g><g fill="#c2b06a" fill-opacity="1"><g transform="translate(284.981769, 118.374616)"><g><path d="M 12.578125 -5.78125 L 15.578125 -1.015625 C 16.660156 0.722656 17.007812 2.503906 16.625 4.328125 C 16.25 6.148438 15.21875 7.585938 13.53125 8.640625 C 11.84375 9.703125 10.09375 10.003906 8.28125 9.546875 C 6.476562 9.097656 5.023438 8 3.921875 6.25 L 0.953125 1.515625 Z M 12.046875 -2.703125 L 3.953125 2.375 L 5.75 5.234375 C 6.457031 6.367188 7.425781 7.078125 8.65625 7.359375 C 9.894531 7.648438 11.101562 7.425781 12.28125 6.6875 C 13.457031 5.945312 14.179688 4.945312 14.453125 3.6875 C 14.734375 2.425781 14.507812 1.222656 13.78125 0.078125 Z M 12.046875 -2.703125 "/></g></g></g><g fill="#c2b06a" fill-opacity="1"><g transform="translate(293.909345, 132.981586)"><g><path d="M 15.40625 5.703125 L 12.28125 -1.109375 L 8.921875 0.4375 L 11.71875 6.53125 L 9.828125 7.390625 L 7.03125 1.296875 L 3.59375 2.875 L 6.8125 9.890625 L 4.921875 10.75 L 0.75 1.640625 L 13.21875 -4.0625 L 17.296875 4.84375 Z M 15.40625 5.703125 "/></g></g></g><g fill="#c2b06a" fill-opacity="1"><g transform="translate(299.928574, 146.804834)"><g/></g></g><g fill="#c2b06a" fill-opacity="1"><g transform="translate(302.532576, 153.474449)"><g><path d="M 3.640625 15.890625 L 3.15625 13.8125 L 13.140625 11.5 L 3.59375 9.234375 L 3.265625 7.78125 L 10.875 1.609375 L 0.890625 3.890625 L 0.40625 1.75 L 13.78125 -1.3125 L 14.390625 1.375 L 6.53125 7.8125 L 16.40625 10.171875 L 17.015625 12.828125 Z M 3.640625 15.890625 "/></g></g></g><g fill="#c2b06a" fill-opacity="1"><g transform="translate(306.751804, 172.911865)"><g><path d="M 11.953125 1.921875 C 13.378906 3.222656 14.164062 4.894531 14.3125 6.9375 C 14.457031 8.988281 13.914062 10.757812 12.6875 12.25 C 11.457031 13.738281 9.863281 14.550781 7.90625 14.6875 C 5.957031 14.820312 4.265625 14.238281 2.828125 12.9375 C 1.398438 11.632812 0.613281 9.957031 0.46875 7.90625 C 0.320312 5.863281 0.863281 4.097656 2.09375 2.609375 C 3.332031 1.128906 4.925781 0.320312 6.875 0.1875 C 8.832031 0.0507812 10.523438 0.628906 11.953125 1.921875 Z M 12.234375 7.109375 C 12.140625 5.753906 11.59375 4.628906 10.59375 3.734375 C 9.59375 2.835938 8.410156 2.4375 7.046875 2.53125 C 5.691406 2.625 4.578125 3.1875 3.703125 4.21875 C 2.835938 5.257812 2.453125 6.445312 2.546875 7.78125 C 2.640625 9.125 3.1875 10.238281 4.1875 11.125 C 5.195312 12.007812 6.378906 12.40625 7.734375 12.3125 C 9.097656 12.21875 10.210938 11.660156 11.078125 10.640625 C 11.941406 9.617188 12.328125 8.441406 12.234375 7.109375 Z M 12.234375 7.109375 "/></g></g></g><g fill="#c2b06a" fill-opacity="1"><g transform="translate(307.860726, 190.591255)"><g><path d="M -1 13.671875 L -0.84375 11.390625 L 9.515625 4.8125 L -0.296875 4.09375 L -0.125 1.796875 L 13.5625 2.796875 L 13.390625 5.0625 L 3 11.671875 L 12.84375 12.390625 L 12.6875 14.671875 Z M -1 13.671875 "/></g></g></g><g fill="#c2b06a" fill-opacity="1"><g transform="translate(306.205615, 208.147656)"><g><path d="M -0.734375 4.046875 L -0.3125 1.765625 L 13.1875 4.203125 L 12.765625 6.484375 Z M -0.734375 4.046875 "/></g></g></g><g fill="#c2b06a" fill-opacity="1"><g transform="translate(304.83922, 216.145462)"><g><path d="M 4.625 9.796875 L -3.59375 12.640625 L -2.84375 10 L 3.140625 7.859375 L -0.828125 2.890625 L -0.078125 0.28125 L 5.3125 7.015625 L 13.03125 4.359375 L 12.296875 6.953125 L 6.78125 8.890625 L 10.453125 13.40625 L 9.71875 16.015625 Z M 4.625 9.796875 "/></g></g></g><g fill="#7c631d" fill-opacity="1"><g transform="translate(55.937056, 278.724529)"><g><path d="M 11.476562 -73.4375 C 12.851562 -51.867188 19.738281 -34.652344 32.359375 -21.34375 C 46.585938 -7.113281 65.636719 0 89.960938 0 L 141.828125 -0.230469 L 141.597656 -21.34375 L 91.570312 -21.113281 C 82.390625 -21.113281 74.585938 -22.261719 68.160156 -24.554688 C 61.734375 -27.082031 56.226562 -30.980469 51.175781 -36.488281 C 41.308594 -47.503906 35.800781 -59.667969 34.652344 -73.4375 Z M 89.960938 -161.105469 C 66.09375 -161.105469 46.816406 -153.761719 32.359375 -139.074219 C 20.882812 -127.597656 14.230469 -112.453125 11.933594 -93.632812 L 35.570312 -93.632812 C 38.097656 -104.648438 43.832031 -115.207031 53.011719 -125.304688 C 58.519531 -130.351562 64.257812 -133.796875 70.226562 -136.320312 C 76.191406 -139.074219 83.535156 -140.222656 92.027344 -140.222656 L 141.597656 -139.761719 L 141.828125 -161.105469 Z M 89.960938 -161.105469 "/></g></g></g><path stroke-linecap="butt" transform="matrix(0.000000000000000912, -14.891416, 14.999999, 0.000000000000000918, 179.867467, 126.705359)" fill="none" stroke-linejoin="miter" d="M -0.000112304 -0.0000186392 L 2.266294 -0.0000186392 " stroke="#7c631d" stroke-width="1" stroke-opacity="1" stroke-miterlimit="4"/><path stroke-linecap="butt" transform="matrix(0.000000000000000912, -14.891416, 14.999999, 0.000000000000000918, 179.999904, 298.955546)" fill="none" stroke-linejoin="miter" d="M -0.0000997408 0.000006408 L 2.266307 0.000006408 " stroke="#7c631d" stroke-width="1" stroke-opacity="1" stroke-miterlimit="4"/><path stroke-linecap="butt" transform="matrix(0.000000000000000912, -14.891416, 14.999999, 0.000000000000000918, 148.976625, 298.955546)" fill="none" stroke-linejoin="miter" d="M -0.0000997408 -0.00000417448 L 2.266307 -0.00000417448 " stroke="#7c631d" stroke-width="1" stroke-opacity="1" stroke-miterlimit="4"/><path stroke-linecap="butt" transform="matrix(0.000000000000000912, -14.891416, 14.999999, 0.000000000000000918, 148.976625, 126.705359)" fill="none" stroke-linejoin="miter" d="M -0.000112304 -0.00000417448 L 2.266294 -0.00000417448 " stroke="#7c631d" stroke-width="1" stroke-opacity="1" stroke-miterlimit="4"/></svg>